<svg width="43" height="59" viewBox="0 0 43 59" fill="none" xmlns="http://www.w3.org/2000/svg">
<path d="M42.9611 53.4523L42.1085 49.5071C40.3518 41.3784 37.133 33.7395 32.5404 26.7928V20.3918C34.656 18.8134 36.0269 16.3038 36.0269 13.4824V10.0254C36.0269 9.07079 35.2464 8.29688 34.2837 8.29688H32.5404V1.72852C32.5404 0.773914 31.7599 0 30.7972 0C29.8345 0 29.054 0.773914 29.054 1.72852V8.3152C25.9231 8.49623 23.1801 10.1293 21.5 12.5441C19.8199 10.1293 17.0769 8.49623 13.946 8.3152V1.72852C13.946 0.773914 13.1655 0 12.2028 0C11.2401 0 10.4596 0.773914 10.4596 1.72852V8.29688H8.71634C7.75361 8.29688 6.97311 9.07079 6.97311 10.0254V13.4824C6.97311 16.3038 8.34399 18.8134 10.4596 20.3918V26.7928C5.86698 33.7395 2.64817 41.3782 0.891463 49.5072L0.0389089 53.4523C-0.143316 54.2957 0.32933 55.1433 1.14679 55.4386C7.68935 57.8018 14.5371 59 21.5 59C28.4629 59 35.3108 57.8018 41.8532 55.4386C42.6707 55.1433 43.1433 54.2958 42.9611 53.4523V53.4523ZM29.6351 11.7539H32.5404V13.4824C32.5404 16.3417 30.1944 18.668 27.3108 18.668H23.2432V18.0918C23.2432 14.5971 26.1106 11.7539 29.6351 11.7539ZM10.4596 11.7539H13.3649C16.8894 11.7539 19.7568 14.5971 19.7568 18.0918V18.668H15.6892C12.8056 18.668 10.4596 16.3417 10.4596 13.4824V11.7539ZM15.6892 22.125H27.3108C27.9076 22.125 28.4906 22.065 29.054 21.9511V25.582H13.946V21.9511C14.5094 22.065 15.0924 22.125 15.6892 22.125V22.125ZM21.5 55.543C15.451 55.543 9.49394 54.5821 3.77011 52.6855L4.3004 50.2316C5.93706 42.6586 8.91065 35.5336 13.1436 29.0391L29.8563 29.0392C34.0892 35.5337 37.0628 42.6586 38.6995 50.2315L39.2298 52.6855C33.5062 54.5821 27.549 55.543 21.5 55.543Z" fill="black"/>
</svg>
