<svg width="180" height="180" viewBox="0 0 180 180" fill="none" xmlns="http://www.w3.org/2000/svg">
<path d="M180 0H0V180H180V0Z" fill="#F1EADC"/>
<path d="M42.52 129.704H43.88L45.384 133.656L46.904 129.704H48.264L46.296 134.648L48.248 139.336L52.088 129.64H53.656L48.904 141H47.656L45.4 135.64L43.128 141H41.88L37.144 129.64H38.696L42.552 139.336L44.488 134.648L42.52 129.704ZM60.9274 141.08C60.1274 141.08 59.402 140.92 58.7514 140.6C58.1007 140.28 57.5354 139.848 57.0554 139.304C56.586 138.749 56.2234 138.131 55.9674 137.448C55.7114 136.755 55.5834 136.045 55.5834 135.32C55.5834 134.563 55.7167 133.843 55.9834 133.16C56.2607 132.467 56.6394 131.853 57.1194 131.32C57.61 130.776 58.1807 130.349 58.8314 130.04C59.482 129.72 60.1914 129.56 60.9594 129.56C61.7594 129.56 62.4847 129.725 63.1354 130.056C63.786 130.387 64.346 130.829 64.8154 131.384C65.2847 131.939 65.6474 132.557 65.9034 133.24C66.1594 133.923 66.2874 134.621 66.2874 135.336C66.2874 136.093 66.154 136.819 65.8874 137.512C65.6207 138.195 65.242 138.808 64.7514 139.352C64.2714 139.885 63.706 140.307 63.0554 140.616C62.4047 140.925 61.6954 141.08 60.9274 141.08ZM57.0394 135.32C57.0394 135.896 57.13 136.456 57.3114 137C57.5034 137.533 57.77 138.008 58.1114 138.424C58.4527 138.84 58.8634 139.171 59.3434 139.416C59.8234 139.661 60.3567 139.784 60.9434 139.784C61.5514 139.784 62.0954 139.656 62.5754 139.4C63.0554 139.144 63.4607 138.803 63.7914 138.376C64.1327 137.949 64.3887 137.469 64.5594 136.936C64.7407 136.403 64.8314 135.864 64.8314 135.32C64.8314 134.744 64.7354 134.189 64.5434 133.656C64.362 133.123 64.0954 132.648 63.7434 132.232C63.402 131.805 62.9914 131.475 62.5114 131.24C62.042 130.995 61.5194 130.872 60.9434 130.872C60.3354 130.872 59.7914 131 59.3114 131.256C58.8314 131.501 58.4207 131.837 58.0794 132.264C57.7487 132.691 57.4927 133.171 57.3114 133.704C57.13 134.227 57.0394 134.765 57.0394 135.32ZM79.7121 141V132.328L75.9681 139H75.0881L71.3281 132.328V141H69.8881V129.64H71.4081L75.5201 137.016L79.6481 129.64H81.1521V141H79.7121ZM88.9285 129.64H90.1445L94.7845 141H93.2485L91.9045 137.672H87.1365L85.8085 141H84.2725L88.9285 129.64ZM91.5845 136.552L89.5365 131.304L87.4245 136.552H91.5845ZM97.0526 139.88L104.381 130.92H97.1966V129.64H106.061V130.76L98.8606 139.72H106.061V141H97.0526V139.88ZM109.594 141V129.64H111.034V141H109.594ZM116.791 132.296V141H115.351V129.64H116.567L123.511 138.52V129.656H124.951V141H123.639L116.791 132.296ZM133.823 141.08C133.076 141.08 132.378 140.92 131.727 140.6C131.087 140.269 130.527 139.832 130.047 139.288C129.567 138.733 129.194 138.115 128.927 137.432C128.66 136.739 128.527 136.024 128.527 135.288C128.527 134.52 128.66 133.795 128.927 133.112C129.194 132.419 129.562 131.805 130.031 131.272C130.511 130.739 131.071 130.323 131.711 130.024C132.362 129.715 133.066 129.56 133.823 129.56C134.922 129.56 135.828 129.789 136.543 130.248C137.258 130.707 137.796 131.304 138.159 132.04L137.055 132.808C136.724 132.147 136.271 131.656 135.695 131.336C135.119 131.016 134.484 130.856 133.791 130.856C133.215 130.856 132.692 130.979 132.223 131.224C131.754 131.469 131.348 131.805 131.007 132.232C130.676 132.648 130.42 133.123 130.239 133.656C130.068 134.189 129.983 134.744 129.983 135.32C129.983 135.928 130.079 136.504 130.271 137.048C130.474 137.581 130.756 138.056 131.119 138.472C131.482 138.877 131.903 139.197 132.383 139.432C132.863 139.667 133.38 139.784 133.935 139.784C134.586 139.784 135.204 139.619 135.791 139.288C136.378 138.957 136.932 138.451 137.455 137.768V139.256C136.431 140.472 135.22 141.08 133.823 141.08ZM137.279 136.424H134.831V135.336H138.495V141H137.279V136.424Z" fill="black"/>
<path d="M116.951 88.9478L115.88 83.9328C113.674 73.5996 109.632 63.8892 103.865 55.0586V46.9217C106.522 44.9153 108.243 41.7252 108.243 38.1387V33.7441C108.243 32.5307 107.263 31.5469 106.054 31.5469H103.865V23.1973C103.865 21.9838 102.885 21 101.676 21C100.467 21 99.4864 21.9838 99.4864 23.1973V31.5702C95.5546 31.8003 92.1099 33.8763 90 36.9458C87.8901 33.8763 84.4454 31.8003 80.5136 31.5702V23.1973C80.5136 21.9838 79.5334 21 78.3244 21C77.1154 21 76.1353 21.9838 76.1353 23.1973V31.5469H73.9461C72.7371 31.5469 71.7569 32.5307 71.7569 33.7441V38.1387C71.7569 41.7252 73.4785 44.9153 76.1353 46.9217V55.0586C70.3678 63.8892 66.3256 73.5995 64.1195 83.9329L63.0489 88.9478C62.82 90.0199 63.4136 91.0975 64.4402 91.4728C72.6564 94.4769 81.2559 96 90 96C98.7441 96 107.344 94.4769 115.56 91.4728C116.586 91.0975 117.18 90.0201 116.951 88.9478V88.9478ZM100.216 35.9414H103.865V38.1387C103.865 41.7734 100.919 44.7305 97.2972 44.7305H92.1892V43.998C92.1892 39.5556 95.7901 35.9414 100.216 35.9414ZM76.1353 35.9414H79.7839C84.2099 35.9414 87.8108 39.5556 87.8108 43.998V44.7305H82.7028C79.0815 44.7305 76.1353 41.7734 76.1353 38.1387V35.9414ZM82.7028 49.125H97.2972C98.0468 49.125 98.7789 49.0487 99.4864 48.904V53.5195H80.5136V48.904C81.2211 49.0487 81.9532 49.125 82.7028 49.125V49.125ZM90 91.6055C82.4036 91.6055 74.9226 90.3841 67.7346 87.9731L68.4005 84.8537C70.4558 75.227 74.1901 66.1698 79.5059 57.9141L100.494 57.9142C105.81 66.1699 109.544 75.2271 111.599 84.8536L112.265 87.9731C105.078 90.3841 97.5964 91.6055 90 91.6055Z" fill="black"/>
</svg>
